<?xml version="1.0" standalone="no"?>
<!DOCTYPE svg PUBLIC "-//W3C//DTD SVG 20010904//EN"
 "http://www.w3.org/TR/2001/REC-SVG-20010904/DTD/svg10.dtd">
<svg version="1.0" xmlns="http://www.w3.org/2000/svg"
 width="300.000000pt" height="300.000000pt" viewBox="0 0 300.000000 300.000000"
 preserveAspectRatio="xMidYMid meet">
<metadata>
Created by potrace 1.10, written by Peter Selinger 2001-2011
</metadata>
<g transform="translate(0.000000,300.000000) scale(0.100000,-0.100000)"
fill="#000000" stroke="none">
<path d="M1339 2376 c-2 -2 -1 -123 3 -268 3 -144 7 -345 9 -445 1 -101 6
-183 10 -183 5 0 29 15 55 33 l47 32 -8 185 c-4 102 -10 253 -13 335 l-7 150
-46 83 c-25 45 -47 80 -50 78z m66 -391 c13 -266 12 -418 -1 -422 -7 -2 -14
15 -18 43 -9 67 -6 603 3 579 5 -11 12 -101 16 -200z"/>
<path d="M1607 2293 l-44 -88 -7 -155 c-3 -85 -9 -234 -12 -331 l-7 -176 48
-32 c26 -18 49 -30 52 -27 3 2 9 179 13 393 5 213 10 412 11 440 2 29 0 55 -3
59 -4 3 -26 -34 -51 -83z m5 -681 c-14 -87 -27 -40 -26 98 1 174 13 438 22
470 10 35 14 -511 4 -568z"/>
<path d="M1686 2342 c-3 -6 -21 -657 -21 -782 0 -44 1 -45 35 -48 l35 -3 -22
21 c-15 14 -23 32 -23 55 0 19 2 35 4 35 2 0 19 -15 39 -34 71 -67 189 -59
242 17 23 33 18 43 -6 13 -63 -80 -176 -73 -242 16 -22 30 -38 136 -18 124 6
-4 14 0 17 11 24 76 70 123 122 123 13 0 21 4 18 9 -3 5 4 12 17 16 20 6 19 8
-11 15 -38 9 -77 42 -99 83 -13 26 -13 32 1 62 20 41 30 49 85 67 l43 15 -30
6 c-38 8 -51 40 -27 67 20 22 2 39 -20 20 -22 -18 -18 -50 8 -78 22 -24 22
-24 1 -20 -58 9 -102 -55 -84 -122 11 -39 64 -100 87 -100 8 0 11 -4 8 -10 -3
-5 -18 -10 -33 -10 -15 0 -42 -9 -60 -20 -18 -11 -35 -20 -38 -20 -4 0 -3 19
0 43 4 23 11 91 16 151 9 99 29 182 52 213 10 13 79 -12 127 -47 35 -24 58
-116 67 -261 3 -57 10 -120 15 -140 14 -57 14 -246 -1 -264 -10 -12 -10 -15 3
-15 35 0 37 21 26 246 -5 120 -13 262 -17 314 l-7 95 -40 22 c-73 40 -264 122
-269 115z"/>
<path d="M1156 2280 c-72 -33 -137 -67 -145 -75 -13 -13 -18 -71 -27 -323 -12
-311 -11 -332 23 -332 12 0 12 3 -1 22 -21 29 -21 160 -1 243 8 33 15 86 15
117 0 73 17 192 34 243 16 46 84 96 136 98 29 2 32 -1 50 -53 12 -32 24 -106
30 -177 5 -68 13 -134 16 -149 4 -15 3 -25 -2 -22 -101 48 -106 50 -133 38
l-26 -12 41 -13 c64 -19 103 -65 105 -122 0 -15 3 -22 6 -15 2 6 9 12 15 12 7
0 9 -19 6 -50 -8 -84 -75 -150 -153 -150 -42 0 -68 12 -109 49 l-30 26 16 -25
c25 -40 63 -63 117 -68 41 -4 58 0 94 22 25 14 47 32 51 41 3 8 11 15 17 15
17 0 2 -82 -18 -97 -15 -11 -12 -13 17 -13 l33 0 -6 308 c-4 169 -7 355 -7
415 0 95 -2 107 -17 107 -10 0 -76 -27 -147 -60z"/>
<path d="M1146 2251 c-3 -5 1 -14 9 -21 8 -7 15 -18 15 -25 0 -16 -30 -42 -55
-48 -14 -3 -15 -5 -4 -6 9 0 30 -8 45 -16 l29 -15 -27 0 c-63 0 -120 -97 -85
-145 13 -16 20 -18 52 -10 61 16 88 64 71 128 -9 36 7 28 28 -15 15 -29 15
-34 -4 -72 -21 -44 -64 -76 -101 -76 -18 0 -20 -3 -11 -12 17 -17 97 27 123
68 28 45 26 114 -4 142 -13 12 -33 22 -45 22 -26 0 -28 12 -7 30 18 15 20 51
3 68 -14 14 -25 15 -32 3z m30 -230 c-18 -33 -60 -51 -78 -33 -9 9 -7 17 5 30
9 10 17 23 17 28 0 18 44 31 58 18 12 -10 11 -17 -2 -43z"/>
<path d="M1809 2099 c-35 -35 -15 -93 45 -130 23 -14 34 -15 52 -7 39 18 35
91 -7 131 -35 32 -62 34 -90 6z m85 -75 c22 -32 9 -49 -28 -40 -28 7 -61 59
-52 82 5 13 9 13 34 0 16 -8 37 -27 46 -42z"/>
<path d="M742 2020 c-113 -5 -114 -5 -143 -38 -51 -57 -45 -79 95 -325 l124
-217 -195 0 c-151 0 -194 -3 -190 -12 6 -19 2128 -19 2135 0 3 9 -40 12 -193
12 l-197 0 23 37 c13 20 69 118 126 217 120 211 126 235 69 292 l-34 34 -106
0 c-58 0 -109 0 -113 1 -5 0 -9 -7 -11 -15 -3 -14 12 -16 102 -16 96 0 107 -2
132 -23 46 -40 39 -64 -98 -303 l-125 -219 -643 0 -643 0 -125 219 c-137 239
-144 263 -98 303 25 21 36 23 132 23 84 0 104 3 104 14 0 21 -3 22 -128 16z"/>
<path d="M1073 1849 c-39 -25 -58 -81 -50 -149 7 -59 33 -80 101 -80 44 0 56
4 79 28 15 15 27 33 27 40 0 7 6 11 12 10 7 -2 14 8 15 22 2 23 2 23 -7 5 -8
-16 -9 -10 -8 25 1 63 -15 95 -53 109 -47 16 -80 13 -116 -10z m132 -69 c33
-37 3 -113 -56 -137 -22 -9 -31 -8 -55 12 -22 17 -26 26 -17 36 6 8 14 29 18
47 6 27 11 32 36 32 17 0 32 6 35 15 8 20 17 19 39 -5z"/>
<path d="M1801 1856 c-38 -21 -51 -54 -44 -111 11 -92 40 -125 110 -125 28 0
34 -3 23 -10 -13 -9 -13 -10 0 -10 27 0 79 58 86 96 4 20 1 59 -6 88 -10 43
-18 54 -46 69 -41 20 -90 22 -123 3z m72 -88 c23 3 27 0 27 -22 0 -14 9 -34
21 -44 l20 -20 -32 -25 c-27 -21 -36 -23 -61 -15 -34 12 -68 61 -68 99 0 14
10 36 22 49 l22 24 11 -25 c8 -18 16 -23 38 -21z"/>
<path d="M1033 1243 c2 -10 15 -53 28 -95 l23 -78 41 0 41 0 23 78 c13 42 26
85 28 95 4 14 -1 17 -30 17 -34 0 -36 -2 -42 -42 -4 -24 -11 -49 -15 -57 -9
-16 -14 -4 -25 62 -6 35 -8 37 -42 37 -29 0 -34 -3 -30 -17z"/>
<path d="M1259 1258 c0 -2 -1 -45 -2 -96 l-2 -92 35 0 35 0 -2 92 -2 93 -30 3
c-17 2 -31 2 -32 0z"/>
<path d="M1379 1258 c0 -2 -1 -45 -2 -96 l-2 -92 71 0 c56 0 74 4 87 18 20 22
22 53 5 70 -8 8 -8 15 1 26 18 21 4 55 -26 67 -21 8 -132 13 -134 7z m99 -60
c-7 -19 -38 -22 -38 -4 0 10 9 16 21 16 12 0 19 -5 17 -12z m2 -73 c0 -8 -9
-15 -20 -15 -11 0 -20 7 -20 15 0 8 9 15 20 15 11 0 20 -7 20 -15z"/>
<path d="M1600 1258 c0 -2 -2 -45 -3 -96 l-2 -92 78 0 c75 0 77 0 77 25 0 23
-4 25 -45 25 -25 0 -45 5 -45 10 0 6 18 10 40 10 36 0 40 2 40 26 0 25 -2 25
-40 19 -33 -6 -40 -4 -40 10 0 13 8 16 43 13 39 -3 42 -1 45 25 l3 27 -75 0
c-42 0 -76 -1 -76 -2z"/>
<path d="M1797 1253 c-4 -3 -7 -17 -7 -31 0 -22 3 -24 40 -20 22 2 40 1 40 -2
0 -3 -18 -24 -40 -45 -24 -23 -40 -48 -40 -62 0 -22 3 -23 85 -23 84 0 85 0
85 25 0 23 -4 25 -42 25 l-42 0 42 43 c28 29 42 51 42 70 l0 27 -78 0 c-43 0
-82 -3 -85 -7z"/>
<path d="M432 908 c4 -10 86 -14 354 -16 l349 -3 138 -245 c82 -144 148 -251
163 -261 32 -20 96 -20 128 0 14 9 82 119 162 261 l139 245 349 3 c268 2 350
6 354 16 3 9 -215 12 -1068 12 -853 0 -1071 -3 -1068 -12z m1362 -75 c-18 -32
-80 -139 -137 -238 -110 -193 -127 -210 -184 -189 -22 7 -47 43 -116 164 -49
85 -110 192 -137 238 l-49 82 329 0 328 0 -34 -57z"/>
</g>
</svg>
